PathFileType	4	(X/Y/Z)	OpenSim_Sub09_EMGStiffKnee_Gyro.trc
DataRate	CameraRate	NumFrames	NumMarkers	Units	OrigDataRate	OrigDataStartFrame	OrigNumFrames
100	100	41	8	m	100	949	7584
Frame#	Time	torso_imu_offset_imu	pelvis_imu_offset_imu	tibia_r_imu_offset_imu	femur_r_imu_offset_imu	tibia_l_imu_offset_imu	femur_l_imu_offset_imu	toes_r_imu_offset_imu	toes_l_imu_offset_imu
				X1	Y1	Z1	X2	Y2	Z2	X3	Y3	Z3	X4	Y4	Z4	X5	Y5	Z5	X6	Y6	Z6	X7	Y7	Z7	X8		Y8	Z8	

949	9.48000000	-0.60471496	0.05628309	0.15855667	-0.16206931	-0.31275531	-0.31709142	5.40218291	0.51420285	-1.64008776	0.46721586	-0.49573364	1.63867877	-0.09614630	0.50103738	1.56377071	0.06466543	0.74855106	0.20077485	1.10162933	-1.42619891	-0.64684657	-0.43817868	-3.20823837	1.29219416
950	9.49000000	-0.50600049	0.00598453	0.04624186	-0.23731984	-0.16058087	-0.26246721	4.94706734	0.17515868	-0.58101270	1.06543816	-0.37784693	1.19621330	0.02178835	0.45241697	1.49470941	0.04729817	0.76393337	0.21104008	0.73761606	-0.90246545	-0.52007470	-0.46613196	-3.51937481	1.46046393
951	9.50000000	-0.39603088	-0.01229254	-0.07355937	-0.19336879	-0.11271283	-0.11375277	2.79820845	-0.59218660	-0.18111601	0.34725169	-0.44456067	0.76987543	0.12619020	0.37494119	1.42459587	-0.00446989	0.66760282	0.14980018	0.73949719	-0.48811206	-0.38848332	-0.45478958	-3.75255368	1.67183416
952	9.51000000	-0.34746580	0.01553443	-0.15757229	-0.02132781	-0.03928063	-0.08751346	0.81387947	-1.75149400	-1.02231449	-0.25379102	-0.53661177	0.23953154	0.08301225	0.32137287	1.29085851	-0.00091208	0.55893054	0.09139243	0.82153619	-0.27958730	-0.38197550	-0.33916386	-3.64156752	1.71896780
953	9.52000000	-0.34756283	0.06267655	-0.14431099	0.14543097	0.04216996	0.00506910	-0.48398674	-2.13126879	-2.39813851	-0.54276411	-0.79718109	-0.56956837	-0.20114973	0.37017900	1.16720743	0.02543145	0.49583669	0.03297176	0.70813522	-0.16529938	-0.30238320	-0.01847460	-3.26242537	1.68979488
954	9.53000000	-0.35667721	0.12453620	-0.15504077	0.33982875	0.14418433	0.13712897	-1.14206860	-1.71321147	-2.71697522	-0.72740343	-0.89933793	-1.21595222	-0.64800875	0.33289939	1.16504318	0.08726586	0.46921493	-0.06021027	0.44612922	-0.10092623	-0.19001674	0.19410107	-2.69193601	1.63938998
955	9.54000000	-0.34309010	0.16974027	-0.21187755	0.54608070	0.20407522	0.18233401	-1.24529905	-1.06634743	-1.37708559	-0.87787854	-0.85235825	-1.60102561	-1.12596483	0.27486966	1.23015341	0.23537678	0.51164884	-0.25633382	0.31927135	-0.05937498	-0.13414865	-0.25123643	-2.22154197	1.77824422
956	9.55000000	-0.35894627	0.18491288	-0.25732459	0.67159928	0.21585082	0.15036209	-1.49624364	-0.69404055	0.12646617	-1.00862452	-0.69695166	-1.92068344	-1.57527196	0.26897881	1.22556581	0.39557021	0.57271059	-0.47829336	0.27015117	-0.04785762	-0.08528042	-0.13473465	-1.88094137	1.76933851
957	9.56000000	-0.38987143	0.17252702	-0.28885168	0.70551648	0.18452845	0.13268425	-1.70345104	-0.68795909	0.27824473	-1.24319162	-0.51003067	-2.12095245	-1.80880688	0.05246243	1.18116851	0.48251898	0.58220805	-0.65420771	0.18628672	-0.03663545	-0.04646781	-0.13816811	-1.73079682	1.77380743
958	9.57000000	-0.37097986	0.12550604	-0.29691135	0.68898773	0.13104453	0.07478357	-1.80758989	-0.67036427	-0.26509050	-1.23466169	-0.45344514	-1.96169340	-1.77004402	-0.14225528	1.08996875	0.49696621	0.56304141	-0.76623802	0.16445528	-0.03524465	-0.04980838	-0.41224680	-1.64040043	1.64106386
959	9.58000000	-0.30909882	0.07187440	-0.27563391	0.66139276	0.07947882	-0.01518815	-1.65823615	-0.48211152	-0.46743751	-0.92482016	-0.44402262	-1.50637686	-1.78019275	-0.15927012	1.04607376	0.40274818	0.47052177	-0.81298910	0.14499495	-0.05036154	-0.02930058	-0.58129117	-1.33757941	1.25738780
960	9.59000000	-0.23058478	0.02612122	-0.25360161	0.61190843	0.05447826	-0.11636631	-1.17432180	-0.51913013	-0.46168358	-0.54865307	-0.39309539	-1.08586052	-1.60474218	-0.27167401	1.06936924	0.28623215	0.40666808	-0.79863670	0.10414768	-0.06973278	-0.00635517	-0.13717032	-0.13537259	0.54838690
961	9.60000000	-0.16625816	-0.01004663	-0.22308879	0.52563747	0.04767302	-0.21544060	-0.35272965	-0.51989587	-0.58502940	-0.18982168	-0.30381569	-0.91471023	-1.10708548	-0.53662201	1.03634405	0.15736558	0.35941921	-0.76698950	0.06502588	-0.06371992	0.00442820	-0.67083784	1.14642237	0.05391023
962	9.61000000	-0.11024929	-0.03255881	-0.21067373	0.42172368	0.05898739	-0.30847154	0.46929450	-0.32974085	-0.65417670	0.09640644	-0.19378469	-0.93322129	-0.19616896	-0.66188632	0.71158130	0.04160582	0.21524951	-0.71615611	0.11870804	-0.07008042	-0.00930448	-0.34746421	1.86873177	-0.53622571
963	9.62000000	-0.06380923	-0.05515676	-0.19459768	0.30413544	0.08996523	-0.38491802	1.02708530	-0.15786033	-0.65722289	0.20150760	-0.16541115	-0.98962623	0.89081290	-0.38587165	-0.08282252	-0.14195140	0.05758597	-0.61752146	0.14935954	-0.05993583	0.00699979	-0.17457969	2.30351156	-0.91150902
964	9.63000000	-0.02103988	-0.06164593	-0.17458831	0.23276780	0.11813532	-0.44497483	1.11091034	-0.10722693	-0.66493434	0.14391044	-0.17579642	-1.02295204	1.61309452	0.17177885	-1.01319053	-0.34592262	-0.08060776	-0.46107329	0.11735310	-0.05764499	0.02063873	-0.11507355	2.62499095	-1.13557992
965	9.64000000	0.02611933	-0.05144061	-0.15239843	0.17329233	0.13300592	-0.48959038	0.79331633	-0.17944711	-0.59076151	0.03200817	-0.17414640	-1.05870935	2.10952296	0.48584509	-1.61667861	-0.42791210	-0.24217243	-0.31829068	0.11558551	-0.06568140	0.01824996	-0.02603779	2.89446412	-1.21971514
966	9.65000000	0.09130231	-0.04089067	-0.12609368	0.12560438	0.11388930	-0.49952361	0.37431600	-0.23537554	-0.44509916	-0.19273552	-0.22233826	-1.10428967	2.37120796	0.29021661	-1.92508162	-0.38063805	-0.38789480	-0.23423834	0.12843675	-0.07173525	0.00613386	0.14766704	3.13893520	-1.16505945
967	9.66000000	0.16878524	-0.03905991	-0.09839709	0.09506592	0.09154541	-0.50317436	-0.04043054	-0.26598889	-0.31241162	-0.52105249	-0.32098680	-1.15238653	2.34022708	-0.04906999	-2.12540904	-0.26471376	-0.47000693	-0.22792685	0.13319858	-0.04434155	-0.00842111	0.37387504	3.29994544	-1.01989461
968	9.67000000	0.24601771	-0.04976426	-0.07993640	0.09395920	0.05599646	-0.50415608	-0.42168328	-0.31930114	-0.23766325	-0.84220854	-0.39565747	-1.18044187	1.97149540	-0.27123909	-2.29159175	-0.15046883	-0.48111959	-0.30095517	0.16220002	-0.02561011	-0.03716205	0.61966793	3.32289303	-0.82718811
969	9.68000000	0.32869234	-0.06247565	-0.06939090	0.11855398	0.02990579	-0.50385721	-0.79729717	-0.37179732	-0.15743577	-1.13071308	-0.41788589	-1.17124467	1.52378200	-0.25761299	-2.43557074	-0.06030993	-0.43717881	-0.43181407	0.18708461	-0.01929838	-0.05759397	0.88069498	3.11743760	-0.58588102
970	9.69000000	0.41007918	-0.08224224	-0.06777371	0.17240577	0.03513481	-0.52602509	-0.94113509	-0.41922266	-0.10113834	-1.37801392	-0.42540035	-1.13561083	1.14160417	-0.04114751	-2.60164368	-0.00072655	-0.38217155	-0.59638154	0.17890347	-0.00268729	-0.07485295	1.07228598	2.86759947	-0.39664218
971	9.70000000	0.48155480	-0.10867469	-0.06700749	0.25095257	0.03771910	-0.55714651	-0.82371019	-0.39892443	-0.15273962	-1.50579115	-0.41427090	-1.08621847	0.81536829	0.09488370	-2.75261372	-0.01092230	-0.30933387	-0.74245585	0.19064987	-0.00182873	-0.08952147	1.13763749	2.76901593	-0.35505574
972	9.71000000	0.55044162	-0.14174480	-0.06456968	0.32379625	0.04322806	-0.58809866	-0.50921094	-0.34842248	-0.28223144	-1.53888435	-0.36519027	-1.06809025	0.57910093	0.13930520	-2.83011981	-0.06971749	-0.24248294	-0.86342809	0.19647197	0.00671490	-0.09137797	1.13687194	2.57058774	-0.41058760
973	9.72000000	0.61551697	-0.17962770	-0.05413564	0.38063413	0.07477718	-0.60875673	-0.20455204	-0.30654444	-0.39780951	-1.53033005	-0.29495548	-1.06502435	0.37914434	0.08885983	-2.85016749	-0.10312799	-0.20144900	-0.97771387	0.17700035	0.02005988	-0.07975779	1.15270436	2.21644987	-0.59634715
974	9.73000000	0.66087460	-0.22219202	-0.03288267	0.43996910	0.11410806	-0.60370715	0.02461451	-0.30377695	-0.43167824	-1.40358632	-0.23942108	-1.04289981	0.14334275	-0.09151063	-2.87084556	-0.09086467	-0.14699837	-1.10020134	0.16033604	0.03407952	-0.09503461	1.24454871	1.98660061	-0.94271458
975	9.74000000	0.70835027	-0.25947439	-0.00409550	0.47639198	0.16180491	-0.57042017	0.14749636	-0.29520646	-0.41634188	-1.19907868	-0.21958088	-1.01521072	0.01983776	-0.29469046	-2.89976377	-0.04314882	-0.06489359	-1.21664921	0.19435873	0.03686927	-0.10967109	1.28571974	1.99076074	-1.38173498
976	9.75000000	0.75518192	-0.28435526	0.02228880	0.52506293	0.21685798	-0.52312488	0.11216577	-0.30426925	-0.37799149	-0.93769429	-0.21643974	-0.97253814	-0.04052869	-0.34613730	-2.92130865	-0.01788872	0.04218919	-1.29900171	0.21341725	0.06153342	-0.12377325	1.10271772	2.08546091	-1.75981377
977	9.76000000	0.79357342	-0.29521659	0.05224566	0.57912497	0.25391751	-0.47425779	-0.05272587	-0.32874208	-0.32111719	-0.68960861	-0.15798281	-0.95131223	-0.25847753	-0.19688697	-2.92353487	0.06212577	0.12905622	-1.34445328	0.21251126	0.08210560	-0.13597165	0.80987760	2.11368360	-2.03685153
978	9.77000000	0.82604689	-0.30485714	0.08462465	0.63331768	0.27693957	-0.41859751	-0.22028976	-0.33497313	-0.27083040	-0.45159277	-0.09372384	-0.93682997	-0.59074208	-0.03748588	-2.96820295	0.18986162	0.16624595	-1.40948462	0.21115902	0.08749544	-0.13795098	0.58656886	2.09569167	-2.25082921
979	9.78000000	0.85671542	-0.31194619	0.10951205	0.68256119	0.29602385	-0.35560814	-0.31980137	-0.33046779	-0.24575790	-0.21169886	-0.05213131	-0.94801194	-0.81474217	0.01223237	-3.05030182	0.35779615	0.11395866	-1.50938760	0.19743024	0.08779964	-0.13096195	0.52698695	2.08213479	-2.43097041
980	9.79000000	0.88438248	-0.31229306	0.13268059	0.72760201	0.31603101	-0.28091818	-0.30267299	-0.28784752	-0.26986584	0.02209677	-0.01541466	-0.96957661	-0.94374689	0.01861091	-3.10411434	0.53055518	-0.00055621	-1.63437844	0.17169920	0.09744413	-0.13085786	0.57319081	2.08309189	-2.55099683
981	9.80000000	0.90745176	-0.30911446	0.15531294	0.77823583	0.33335170	-0.21119673	-0.18331820	-0.25203403	-0.31174721	0.25328875	0.00227408	-0.99709662	-1.07307524	0.04531800	-3.10392857	0.65411885	-0.14656582	-1.72920667	0.17795825	0.08939980	-0.14179266	0.63193227	2.07939674	-2.58152456
982	9.81000000	0.92483559	-0.30784934	0.16761759	0.81640213	0.32466177	-0.14205376	-0.07645846	-0.22808362	-0.35198278	0.48917593	0.04247569	-1.01835349	-1.20818758	0.12097062	-3.07024967	0.70399721	-0.19150409	-1.74661159	0.18694492	0.08281445	-0.13599095	0.63835586	2.09826645	-2.52860060
983	9.82000000	0.94132098	-0.30821589	0.17745109	0.85905153	0.32411225	-0.08165078	0.03398447	-0.21484829	-0.39141766	0.67409464	0.08892141	-1.01996493	-1.28156430	0.21487738	-3.02570097	0.82121262	-0.10484725	-1.72497204	0.13820764	0.08300937	-0.12856028	0.63684572	2.10974773	-2.37489282
984	9.83000000	0.94253710	-0.30924027	0.19848183	0.89113255	0.32258926	-0.03747769	0.12313859	-0.19510758	-0.42855905	0.83784149	0.10949874	-1.00261073	-1.25326306	0.29685279	-2.98086031	0.90022071	-0.03217857	-1.66234369	0.15515214	0.06568176	-0.11862654	0.66697195	2.09316891	-2.12434887
985	9.84000000	0.91196509	-0.30997805	0.20876496	0.88771595	0.31106173	-0.01944708	0.16354410	-0.19938931	-0.44696269	1.02560838	0.09447433	-0.95429610	-1.08510731	0.36090579	-2.93111731	0.96113646	-0.00959714	-1.61955130	0.12596785	0.06307600	-0.11564136	0.75802892	2.08089780	-1.80885456
986	9.85000000	0.87581354	-0.31350011	0.21921396	0.84808998	0.28808634	-0.00534081	0.13204249	-0.20614458	-0.46305349	1.20668995	0.04375046	-0.90526529	-0.70454149	0.36610617	-2.86967901	1.07212700	-0.00788571	-1.66376262	0.11528908	0.04822830	-0.12045383	0.89801470	2.09803302	-1.46441404
987	9.86000000	0.83166100	-0.31151210	0.24028804	0.78421388	0.27111799	0.01202775	0.08155507	-0.19879047	-0.46323098	1.34204621	0.00880638	-0.87335741	-0.07626600	0.30728481	-2.79747359	1.11560168	-0.01328386	-1.69603328	0.11389657	0.02901317	-0.13721682	1.08541900	2.11186886	-1.12172340
988	9.87000000	0.79702618	-0.30294813	0.25469535	0.71439857	0.27187854	0.01601936	0.02005742	-0.18954361	-0.44101411	1.40680917	0.01623597	-0.85676276	0.64926946	0.16849770	-2.72431759	1.04054042	-0.06903274	-1.72230871	0.12646791	0.01324239	-0.14949561	1.29177626	2.14550650	-0.82058868
989	9.88000000	0.74732136	-0.27833374	0.25248237	0.65039471	0.28329401	0.01763880	-0.06369703	-0.17837489	-0.43733355	1.40346895	0.03528571	-0.84085905	1.34376615	-0.06740437	-2.64827718	0.85987457	-0.20293770	-1.70266361	0.11384250	-0.00541961	-0.15010099	1.45561183	2.21415875	-0.59018286
